<svg width="508" height="367" viewBox="0 0 508 367" fill="none" xmlns="http://www.w3.org/2000/svg">
<g clip-path="url(#clip0_10450_1642)">
<rect width="508" height="367" fill="white"/>
<mask id="mask0_10450_1642" style="mask-type:luminance" maskUnits="userSpaceOnUse" x="164" y="77" width="211" height="258">
<path d="M164.527 77.0264H374.081V334.425H164.527V77.0264Z" fill="white"/>
</mask>
<g mask="url(#mask0_10450_1642)">
<path d="M374.081 302.087C374.081 302.087 401.534 251.42 384.881 201.069C374.027 168.248 340.743 133.983 308.787 156.528C295.145 166.152 266.765 140.175 250 108.464C232.948 76.2124 186.483 72.8064 165.862 103.531C153.815 121.478 90.1372 98.3627 132.044 204.281C149.287 247.862 96.3127 256.416 116.951 302.183L374.081 302.087Z" fill="#FFF4DB"/>
</g>
<mask id="mask1_10450_1642" style="mask-type:luminance" maskUnits="userSpaceOnUse" x="262" y="188" width="196" height="197">
<path d="M457.951 188.282H262.169V384.065H457.951V188.282Z" fill="white"/>
</mask>
<g mask="url(#mask1_10450_1642)">
<path d="M263.464 194.337C263.94 196.702 265.387 199.064 267.602 199.669L266.959 192.578C266.942 192.541 266.928 192.503 266.919 192.463C266.917 192.454 266.694 191.505 265.933 191.035C265.462 190.744 264.859 190.687 264.14 190.864C263.405 191.046 263.111 192.57 263.464 194.337ZM263.866 189.756C264.9 189.5 265.802 189.606 266.546 190.07C266.614 190.114 266.679 190.16 266.742 190.205L266.691 189.633C266.643 189.106 266.93 188.632 267.37 188.413C267.535 188.33 267.724 188.282 267.923 188.282H277.469C277.876 188.282 278.234 188.478 278.456 188.777C278.637 189.013 278.73 189.313 278.702 189.633L277.313 204.925C277.267 205.42 276.847 205.793 276.35 205.779H269.042C268.545 205.793 268.125 205.42 268.079 204.925L267.712 200.873C264.802 200.337 262.926 197.455 262.346 194.562C261.838 192.037 262.448 190.107 263.866 189.756Z" fill="#0CAF60"/>
<g opacity="0.05">
<path d="M263.464 194.337C263.94 196.702 265.387 199.064 267.602 199.669L266.959 192.578C266.942 192.542 266.928 192.503 266.919 192.464C266.917 192.454 266.694 191.505 265.933 191.035C265.462 190.744 264.859 190.687 264.14 190.864C263.405 191.046 263.111 192.57 263.464 194.337ZM263.866 189.757C264.9 189.5 265.802 189.606 266.546 190.07C266.614 190.114 266.679 190.16 266.742 190.205L266.691 189.633C266.643 189.106 266.93 188.632 267.37 188.414C267.122 205.194 277.313 204.925 277.313 204.925C277.267 205.42 276.847 205.793 276.35 205.779H269.042C268.545 205.793 268.125 205.42 268.079 204.925L267.712 200.874C264.802 200.337 262.926 197.455 262.346 194.562C261.838 192.037 262.448 190.107 263.866 189.757Z" fill="#020202"/>
</g>
<g opacity="0.15">
<path d="M275.112 198.92C277.302 200.069 278.211 191.655 278.456 188.777C278.234 188.478 277.876 188.282 277.469 188.282L277.07 188.282C277.199 195.102 273.408 198.026 275.112 198.92Z" fill="white"/>
</g>
</g>
<mask id="mask2_10450_1642" style="mask-type:luminance" maskUnits="userSpaceOnUse" x="64" y="54" width="363" height="363">
<path d="M426.972 117.207L128.164 54.0254L64.9823 352.834L363.791 416.015L426.972 117.207Z" fill="white"/>
</mask>
<g mask="url(#mask2_10450_1642)">
<path d="M141.852 60.8891C152.015 60.9884 160.173 69.3076 160.073 79.4705C160.048 81.9977 159.515 84.4008 158.572 86.5838L162.773 99.9892L150.383 95.5032C147.738 96.9272 144.708 97.7234 141.492 97.692C131.329 97.5925 123.171 89.2734 123.27 79.1106C123.37 68.9477 131.689 60.7897 141.852 60.8891Z" fill="#FFF4DB" stroke="#FBDB98" stroke-width="3.44664" stroke-miterlimit="2.0226" stroke-linejoin="round"/>
<path d="M151.911 60.4597C151.911 60.4597 140.925 54.4705 131.231 60.8993" stroke="#FBDB98" stroke-width="8.08985" stroke-miterlimit="10.1131" stroke-linecap="round"/>
<path d="M128.528 62.5636C128.528 62.5636 126.957 63.7332 126.535 64.6863" stroke="#FBDB98" stroke-width="8.08985" stroke-miterlimit="10.1131" stroke-linecap="round"/>
<path d="M135.298 86.3937L140.212 85.9099L140.721 91.0788L135.807 91.5628L135.298 86.3937ZM133.742 72.8845L133.488 70.3001L138.849 69.7723L139.103 72.3567L138.822 84.2658L136.34 84.5103L133.742 72.8845Z" fill="#FBDB98"/>
<path d="M144.706 69.0848L145.016 66.5063L150.365 67.1485L150.055 69.727L147.209 81.2944L144.733 80.9972L144.706 69.0848ZM143.308 82.6109L148.211 83.1997L147.592 88.3567L142.689 87.7679L143.308 82.6109Z" fill="#FBDB98"/>
</g>
<mask id="mask3_10450_1642" style="mask-type:luminance" maskUnits="userSpaceOnUse" x="134" y="11" width="251" height="252">
<path d="M384.622 11.9578H134.258V262.322H384.622V11.9578Z" fill="white"/>
</mask>
<g mask="url(#mask3_10450_1642)">
<path fill-rule="evenodd" clip-rule="evenodd" d="M363.001 44.499C364.631 44.499 366.195 45.1465 367.346 46.299C368.499 47.4514 369.147 49.0146 369.147 50.6445C369.147 73.5218 369.147 153.608 369.147 176.485C369.147 178.115 368.499 179.679 367.346 180.832C366.195 181.983 364.631 182.631 363.001 182.631C336.436 182.631 231.621 182.631 205.056 182.631C203.426 182.631 201.863 181.983 200.71 180.832C199.558 179.679 198.91 178.115 198.91 176.485V50.6445C198.91 49.0146 199.558 47.4514 200.71 46.299C201.863 45.1465 203.426 44.499 205.056 44.499H363.001Z" fill="white" stroke="#434D56" stroke-width="2.24051" stroke-miterlimit="1.2435" stroke-linecap="round" stroke-linejoin="round"/>
<path fill-rule="evenodd" clip-rule="evenodd" d="M363.001 44.4985C364.631 44.4985 366.195 45.146 367.346 46.2985C368.499 47.451 369.147 49.0141 369.147 50.6439V61.1008H198.91V50.6439C198.91 49.0141 199.558 47.451 200.71 46.2985C201.863 45.146 203.426 44.4985 205.056 44.4985C231.621 44.4985 336.436 44.4985 363.001 44.4985Z" fill="#434D56"/>
<path d="M359.254 55.6436C360.824 55.6436 362.098 54.3704 362.098 52.7998C362.098 51.2293 360.824 49.9561 359.254 49.9561C357.683 49.9561 356.41 51.2293 356.41 52.7998C356.41 54.3704 357.683 55.6436 359.254 55.6436Z" fill="#CA2026"/>
<path d="M350.845 55.6436C352.415 55.6436 353.689 54.3704 353.689 52.7998C353.689 51.2293 352.415 49.9561 350.845 49.9561C349.274 49.9561 348.001 51.2293 348.001 52.7998C348.001 54.3704 349.274 55.6436 350.845 55.6436Z" fill="#FAB400"/>
<path d="M341.845 55.6436C343.415 55.6436 344.689 54.3704 344.689 52.7998C344.689 51.2293 343.415 49.9561 341.845 49.9561C340.274 49.9561 339.001 51.2293 339.001 52.7998C339.001 54.3704 340.274 55.6436 341.845 55.6436Z" fill="#0CAF60"/>
<g opacity="0.47">
<mask id="mask4_10450_1642" style="mask-type:luminance" maskUnits="userSpaceOnUse" x="243" y="93" width="26" height="28">
<path d="M268.597 93.5261H243.583V120.755H268.597V93.5261Z" fill="white"/>
</mask>
<g mask="url(#mask4_10450_1642)">
<path d="M273.417 104.693L277.9 122.479C277.912 122.53 277.88 122.583 277.825 122.596L244.896 130.89C244.842 130.904 244.788 130.873 244.775 130.822L240.671 114.538L244.313 109.731L247.993 111.748L253.118 107.252L256.936 110.479L260.197 106.456L263.88 108.923L267.854 104.682L270.805 107.852L273.417 104.693Z" fill="#F4F4F4" stroke="#CA2026" stroke-width="1.1416" stroke-miterlimit="5.7111"/>
<path d="M269.429 89.2468L272.6 101.828L269.988 104.987L267.037 101.817L263.063 106.058L259.381 103.592L256.119 107.614L252.301 104.388L247.176 108.883L243.496 106.866L239.854 111.673L234.279 89.5552C234.266 89.5047 234.3 89.4516 234.354 89.4376L258.301 83.4067L259.995 90.132C260.191 90.9066 261.01 91.3676 261.825 91.1618L269.429 89.2468Z" fill="#F4F4F4" stroke="#CA2026" stroke-width="1.1416" stroke-miterlimit="5.7111"/>
</g>
</g>
<g opacity="0.47">
<mask id="mask5_10450_1642" style="mask-type:luminance" maskUnits="userSpaceOnUse" x="300" y="91" width="25" height="30">
<path d="M324.758 91.9084H300.448V120.723H324.758V91.9084Z" fill="white"/>
</mask>
<g mask="url(#mask5_10450_1642)">
<path d="M333.779 98.8564L325.088 131.38C325.074 131.435 325.017 131.467 324.963 131.453L291.482 122.506C291.428 122.492 291.395 122.435 291.41 122.381L302.4 81.2514C302.415 81.1969 302.471 81.1642 302.526 81.1788L326.873 87.6848L324.948 94.8878C324.726 95.7178 325.218 96.5688 326.048 96.7906L333.779 98.8564Z" fill="#F4F4F4" stroke="#CA2026" stroke-width="1.1416" stroke-miterlimit="5.7111"/>
<path d="M307.487 114.597L313.983 116.332L312.485 121.938L305.989 120.202L307.487 114.597ZM309.997 107.319L310.34 107.093C314.253 107.785 315.843 107.256 316.222 105.838L316.23 105.805C316.53 104.684 315.825 103.754 314.242 103.331C312.692 102.917 310.767 103.25 308.847 104.221L306.712 98.9871C309.261 97.5132 312.386 96.7937 316.178 97.8069C321.024 99.1022 323.716 102.648 322.57 106.934L322.553 107C321.443 111.154 318.197 112.195 314.299 112.107L313.34 114.111L309.35 113.045L309.997 107.319Z" fill="#CA2026"/>
</g>
</g>
<path d="M307.522 88.481V133.858C307.522 133.934 307.46 133.997 307.384 133.997H260.673C260.596 133.997 260.534 133.934 260.534 133.858V76.4747C260.534 76.3987 260.596 76.3364 260.672 76.3364H294.641V86.386C294.641 87.5441 295.578 88.481 296.736 88.481H307.522Z" fill="#F4F4F4" stroke="#CA2026" stroke-width="1.1416" stroke-miterlimit="5.7111"/>
<path d="M295.786 85.3412V78.0428L305.218 86.9353H297.381C296.5 86.9353 295.786 86.2216 295.786 85.3412Z" fill="#CA2026"/>
<path d="M268.199 98.542L274.14 92.8826L283.572 102.784L293.578 93.2523L299.088 99.0368L289.083 108.568L298.565 118.522L292.624 124.181L283.142 114.228L273.136 123.759L267.626 117.975L277.632 108.443L268.199 98.542Z" fill="#CA2026"/>
<g opacity="0.85">
<path d="M297.908 168.494H269.257C266.632 168.494 264.505 166.367 264.505 163.742V163.371C264.505 160.747 266.632 158.619 269.257 158.619H297.908C300.532 158.619 302.66 160.747 302.66 163.371V163.742C302.66 166.367 300.532 168.494 297.908 168.494Z" fill="#0CAF60"/>
<path d="M262.106 145.6H263.601V154.178H262.341L257.621 148.076V154.178H256.126V145.6H257.52L262.106 151.531V145.6Z" fill="#394249"/>
<path d="M274.066 151.593C273.846 152.132 273.535 152.604 273.135 153.008C272.734 153.412 272.26 153.733 271.713 153.97C271.166 154.207 270.561 154.325 269.9 154.325C269.238 154.325 268.633 154.209 268.086 153.976C267.538 153.743 267.069 153.427 266.677 153.026C266.285 152.626 265.978 152.156 265.758 151.617C265.537 151.078 265.427 150.506 265.427 149.902C265.427 149.297 265.537 148.725 265.758 148.186C265.978 147.647 266.289 147.175 266.689 146.771C267.089 146.366 267.563 146.046 268.11 145.809C268.658 145.572 269.262 145.453 269.924 145.453C270.586 145.453 271.19 145.57 271.738 145.803C272.285 146.035 272.755 146.352 273.147 146.752C273.539 147.153 273.846 147.622 274.066 148.162C274.287 148.701 274.397 149.273 274.397 149.877C274.397 150.482 274.287 151.054 274.066 151.593ZM272.602 148.719C272.459 148.347 272.259 148.023 272.001 147.745C271.744 147.467 271.435 147.247 271.076 147.083C270.716 146.92 270.324 146.838 269.9 146.838C269.475 146.838 269.085 146.918 268.729 147.077C268.374 147.236 268.069 147.453 267.816 147.726C267.563 148 267.365 148.323 267.222 148.694C267.079 149.066 267.008 149.46 267.008 149.877C267.008 150.294 267.079 150.688 267.222 151.06C267.365 151.431 267.565 151.756 267.822 152.034C268.08 152.312 268.388 152.532 268.748 152.695C269.107 152.859 269.499 152.941 269.924 152.941C270.349 152.941 270.739 152.861 271.094 152.702C271.45 152.542 271.754 152.326 272.007 152.052C272.261 151.778 272.459 151.456 272.602 151.084C272.745 150.712 272.816 150.318 272.816 149.901C272.816 149.485 272.745 149.091 272.602 148.719Z" fill="#394249"/>
<path d="M287.325 151.574C287.104 152.101 286.792 152.557 286.387 152.941C285.983 153.325 285.5 153.627 284.941 153.847C284.381 154.068 283.767 154.178 283.097 154.178H279.898V145.6H283.097C283.767 145.6 284.381 145.709 284.941 145.925C285.5 146.142 285.983 146.442 286.387 146.826C286.791 147.21 287.104 147.663 287.325 148.186C287.545 148.709 287.655 149.273 287.655 149.877C287.655 150.482 287.545 151.047 287.325 151.574ZM285.86 148.727C285.716 148.37 285.516 148.06 285.258 147.798C284.999 147.535 284.686 147.33 284.318 147.182C283.949 147.035 283.539 146.961 283.089 146.961H281.394V152.818H283.089C283.539 152.818 283.949 152.747 284.318 152.603C284.686 152.459 285 152.258 285.258 152C285.516 151.741 285.716 151.434 285.86 151.077C286.003 150.72 286.075 150.328 286.075 149.902C286.075 149.475 286.003 149.084 285.86 148.727Z" fill="#394249"/>
<path d="M296.295 154.178H294.702L293.832 152.107H289.776L288.894 154.178H287.35L291.124 145.539H292.521L296.295 154.178ZM291.798 147.34L290.327 150.772H293.281L291.798 147.34Z" fill="#394249"/>
<path d="M300.351 154.178H298.832V146.997H296.111V145.6H303.072V146.997H300.351V154.178H300.351Z" fill="#394249"/>
<path d="M311.919 154.178H310.326L309.456 152.107H305.4L304.518 154.178H302.974L306.748 145.539H308.145L311.919 154.178ZM307.422 147.34L305.951 150.772H308.905L307.422 147.34Z" fill="#394249"/>
<path d="M275.193 164.975C275.092 165.042 274.983 165.099 274.866 165.149C274.75 165.199 274.624 165.238 274.489 165.266C274.355 165.294 274.214 165.308 274.067 165.308C273.805 165.308 273.566 165.263 273.352 165.171C273.137 165.08 272.954 164.955 272.802 164.794C272.65 164.633 272.532 164.444 272.449 164.225C272.366 164.007 272.324 163.77 272.324 163.515C272.324 163.27 272.367 163.038 272.452 162.819C272.536 162.601 272.656 162.41 272.809 162.246C272.963 162.082 273.146 161.952 273.359 161.856C273.572 161.76 273.805 161.712 274.058 161.712C274.205 161.712 274.339 161.722 274.459 161.744C274.579 161.766 274.69 161.796 274.792 161.836C274.895 161.876 274.992 161.925 275.083 161.982C275.174 162.04 275.263 162.107 275.349 162.184L274.975 162.646C274.911 162.589 274.845 162.538 274.778 162.492C274.711 162.445 274.64 162.406 274.567 162.375C274.493 162.343 274.412 162.319 274.324 162.3C274.236 162.282 274.139 162.273 274.034 162.273C273.88 162.273 273.737 162.305 273.604 162.37C273.471 162.435 273.356 162.523 273.258 162.636C273.16 162.749 273.084 162.88 273.028 163.029C272.972 163.179 272.944 163.338 272.944 163.507C272.944 163.686 272.971 163.852 273.025 164.005C273.08 164.158 273.157 164.29 273.258 164.401C273.359 164.512 273.479 164.599 273.618 164.662C273.758 164.725 273.914 164.756 274.087 164.756C274.247 164.756 274.396 164.732 274.536 164.684C274.675 164.636 274.796 164.572 274.898 164.492V163.838H274.038V163.306H275.469V164.766C275.386 164.84 275.294 164.909 275.193 164.975Z" fill="#F9F9F9"/>
<path d="M279.473 164.2C279.386 164.419 279.265 164.61 279.108 164.774C278.951 164.938 278.765 165.068 278.551 165.164C278.336 165.26 278.1 165.308 277.84 165.308C277.581 165.308 277.344 165.261 277.13 165.166C276.915 165.072 276.731 164.944 276.578 164.782C276.424 164.619 276.304 164.429 276.217 164.21C276.131 163.992 276.088 163.76 276.088 163.515C276.088 163.27 276.131 163.038 276.217 162.819C276.304 162.601 276.426 162.41 276.582 162.246C276.739 162.082 276.925 161.952 277.139 161.856C277.354 161.76 277.591 161.712 277.85 161.712C278.109 161.712 278.346 161.759 278.56 161.853C278.775 161.948 278.959 162.076 279.113 162.238C279.266 162.401 279.386 162.591 279.473 162.81C279.559 163.028 279.602 163.26 279.602 163.505C279.602 163.75 279.559 163.982 279.473 164.2ZM278.899 163.035C278.843 162.885 278.765 162.753 278.664 162.641C278.563 162.528 278.442 162.439 278.301 162.372C278.16 162.306 278.007 162.273 277.84 162.273C277.674 162.273 277.521 162.305 277.382 162.37C277.243 162.434 277.123 162.522 277.024 162.633C276.925 162.744 276.847 162.875 276.791 163.025C276.735 163.176 276.707 163.336 276.707 163.505C276.707 163.674 276.735 163.834 276.791 163.984C276.847 164.135 276.926 164.267 277.027 164.379C277.127 164.492 277.248 164.581 277.389 164.647C277.53 164.714 277.683 164.747 277.85 164.747C278.016 164.747 278.169 164.714 278.309 164.65C278.448 164.585 278.567 164.498 278.666 164.387C278.765 164.276 278.843 164.145 278.899 163.994C278.955 163.844 278.983 163.684 278.983 163.515C278.983 163.346 278.955 163.186 278.899 163.035Z" fill="#F9F9F9"/>
<path d="M284.069 162.01C284.267 162.17 284.366 162.387 284.366 162.662C284.366 162.768 284.352 162.863 284.325 162.946C284.298 163.029 284.263 163.101 284.221 163.162C284.178 163.224 284.127 163.278 284.068 163.324C284.009 163.371 283.95 163.41 283.89 163.444C283.988 163.48 284.078 163.522 284.159 163.57C284.24 163.618 284.31 163.675 284.369 163.741C284.428 163.807 284.473 163.886 284.505 163.977C284.537 164.068 284.553 164.173 284.553 164.292C284.553 164.447 284.523 164.584 284.464 164.703C284.405 164.822 284.321 164.922 284.213 165.003C284.104 165.084 283.973 165.146 283.82 165.187C283.666 165.228 283.497 165.249 283.312 165.249H281.759V161.771H283.264C283.602 161.771 283.871 161.851 284.069 162.01ZM283.608 163.124C283.723 163.046 283.78 162.926 283.78 162.762C283.78 162.619 283.73 162.508 283.629 162.43C283.529 162.352 283.383 162.313 283.191 162.313H282.345V163.242H283.148C283.34 163.242 283.493 163.203 283.608 163.124ZM283.795 164.585C283.91 164.504 283.967 164.384 283.967 164.225C283.967 164.076 283.91 163.96 283.797 163.878C283.684 163.795 283.511 163.753 283.278 163.753H282.344V164.707H283.321C283.522 164.707 283.68 164.667 283.795 164.585Z" fill="#F9F9F9"/>
<path d="M288.441 165.249H287.817L287.476 164.409H285.887L285.541 165.249H284.937L286.415 161.747H286.963L288.441 165.249ZM286.679 162.477L286.103 163.868H287.26L286.679 162.477Z" fill="#F9F9F9"/>
<path d="M291.164 164.948C291.069 165.022 290.968 165.087 290.859 165.142C290.75 165.196 290.631 165.238 290.501 165.266C290.372 165.294 290.228 165.308 290.072 165.308C289.825 165.308 289.598 165.262 289.39 165.169C289.182 165.076 289.001 164.95 288.85 164.789C288.698 164.628 288.578 164.439 288.492 164.22C288.405 164.002 288.362 163.767 288.362 163.515C288.362 163.266 288.405 163.033 288.49 162.814C288.574 162.596 288.694 162.405 288.847 162.241C289.001 162.077 289.184 161.948 289.395 161.853C289.606 161.759 289.84 161.712 290.096 161.712C290.249 161.712 290.389 161.725 290.516 161.751C290.642 161.778 290.758 161.815 290.864 161.863C290.97 161.911 291.067 161.968 291.157 162.035C291.246 162.101 291.331 162.174 291.411 162.253L291.032 162.705C290.897 162.576 290.755 162.472 290.605 162.392C290.454 162.313 290.283 162.273 290.091 162.273C289.931 162.273 289.783 162.305 289.647 162.37C289.511 162.434 289.393 162.522 289.294 162.633C289.195 162.744 289.118 162.874 289.063 163.023C289.009 163.172 288.982 163.333 288.982 163.505C288.982 163.677 289.009 163.839 289.063 163.989C289.118 164.14 289.195 164.272 289.294 164.384C289.393 164.497 289.511 164.585 289.647 164.65C289.783 164.715 289.931 164.747 290.091 164.747C290.296 164.747 290.472 164.706 290.619 164.625C290.766 164.544 290.912 164.434 291.056 164.295L291.435 164.692C291.349 164.788 291.258 164.874 291.164 164.948Z" fill="#F9F9F9"/>
<path d="M295.026 165.249H294.31L293.163 163.684L292.64 164.24V165.249H292.054V161.771H292.64V163.52L294.238 161.771H294.963L293.566 163.267L295.026 165.249Z" fill="#F9F9F9"/>
</g>
</g>
<path d="M256.546 205.78H224.017C223.883 205.78 223.774 205.697 223.774 205.594V205.19C223.774 205.087 223.883 205.004 224.018 205.004L255.657 205.029C255.791 205.029 255.9 204.945 255.9 204.842V200.006C255.9 199.903 255.791 199.819 255.657 199.819L224.018 199.838C223.883 199.838 223.774 199.754 223.774 199.651V199.206C223.774 199.103 223.883 199.02 224.017 199.02H256.546C256.68 199.02 256.789 199.103 256.789 199.206V205.594C256.789 205.697 256.68 205.78 256.546 205.78Z" fill="#8E8E8E"/>
<path d="M224.518 199.837V205.005L255.9 205.029V199.819L224.518 199.837Z" fill="#F6F6F6"/>
<path d="M224.529 200.771L255.599 200.603" stroke="#D6D6D6" stroke-width="1.77977" stroke-miterlimit="8.8939"/>
<path d="M224.529 201.331L255.599 201.163" stroke="#D6D6D6" stroke-width="1.77977" stroke-miterlimit="8.8939"/>
<path d="M224.529 202.52L255.599 202.351" stroke="#D6D6D6" stroke-width="1.77977" stroke-miterlimit="8.8939"/>
<path d="M224.529 204.12L255.599 203.952" stroke="#D6D6D6" stroke-width="1.77977" stroke-miterlimit="8.8939"/>
<path d="M254.418 199.019H224.002C223.877 199.019 223.775 198.941 223.775 198.845V198.467C223.775 198.371 223.877 198.293 224.002 198.293L253.587 198.316C253.712 198.316 253.814 198.238 253.814 198.142V193.619C253.814 193.523 253.712 193.445 253.587 193.445L224.002 193.462C223.877 193.462 223.775 193.384 223.775 193.288V192.872C223.775 192.775 223.877 192.698 224.002 192.698H254.418C254.544 192.698 254.646 192.775 254.646 192.872V198.845C254.646 198.941 254.544 199.019 254.418 199.019Z" fill="#8E8E8E"/>
<path d="M224.47 193.461V198.294L253.814 198.316V193.445L224.47 193.461Z" fill="#F6F6F6"/>
<path d="M224.481 194.335L253.533 194.178" stroke="#D6D6D6" stroke-width="1.65985" stroke-miterlimit="8.3163"/>
<path d="M224.481 194.859L253.533 194.702" stroke="#D6D6D6" stroke-width="1.65985" stroke-miterlimit="8.3163"/>
<path d="M224.481 195.97L253.533 195.813" stroke="#D6D6D6" stroke-width="1.65985" stroke-miterlimit="8.3163"/>
<path d="M224.481 197.467L253.533 197.309" stroke="#D6D6D6" stroke-width="1.65985" stroke-miterlimit="8.3163"/>
<mask id="mask6_10450_1642" style="mask-type:luminance" maskUnits="userSpaceOnUse" x="131" y="100" width="382" height="381">
<path d="M512.532 100H131.749V480.783H512.532V100Z" fill="white"/>
</mask>
<g mask="url(#mask6_10450_1642)">
<path d="M199.171 287.951H182.304V255.604H176.189V287.951H158.446C157.028 287.951 155.878 289.101 155.878 290.519V294.762H158.785V291.806C158.785 291.519 159.017 291.287 159.304 291.287H176.713C177.083 291.287 177.399 291.555 177.459 291.92L177.902 295.104L181.538 294.34L181.181 292.164C181.106 291.704 181.461 291.287 181.927 291.287H198.276C198.583 291.287 198.832 291.536 198.832 291.843V294.762H201.739V290.519C201.739 289.101 200.589 287.951 199.171 287.951Z" fill="#C6C6C6"/>
<g opacity="0.08">
<path d="M179.973 255.604L179.643 287.305H176.188V287.951H182.304V255.604H179.973Z" fill="black"/>
</g>
<path d="M195.784 244.866H162.71V253.406C162.71 254.138 163.304 254.732 164.037 254.732H194.457C195.19 254.732 195.784 254.138 195.784 253.406V244.866Z" fill="#444D56"/>
<path d="M185.274 248.415H173.219V256.954C173.219 257.687 173.813 258.281 174.545 258.281H183.947C184.68 258.281 185.274 257.687 185.274 256.954V248.415Z" fill="#444D56"/>
<path d="M161.755 297.896C161.755 295.473 159.791 293.51 157.369 293.51C154.947 293.51 152.984 295.473 152.984 297.896C152.984 300.318 154.947 302.281 157.369 302.281C159.791 302.281 161.755 300.318 161.755 297.896Z" fill="#444D56"/>
<path d="M184.626 297.896C184.626 295.473 182.662 293.51 180.24 293.51C177.818 293.51 175.855 295.473 175.855 297.896C175.855 300.318 177.818 302.281 180.24 302.281C182.662 302.281 184.626 300.318 184.626 297.896Z" fill="#444D56"/>
<path d="M205.604 297.896C205.604 295.473 203.64 293.51 201.218 293.51C198.796 293.51 196.832 295.473 196.832 297.896C196.832 300.318 198.796 302.281 201.218 302.281C203.64 302.281 205.604 300.318 205.604 297.896Z" fill="#444D56"/>
<g opacity="0.15">
<path d="M173.219 254.732H185.274V255.366L173.219 255.604V254.732Z" fill="black"/>
</g>
<path d="M153.929 242.234C150.085 243.001 146.352 240.651 145.526 236.945L132.402 178.042C130.477 169.405 132.938 161.138 138.076 158.989C142.342 157.204 148.004 155.391 154.751 154.513C170.469 152.467 178.247 237.383 178.247 237.383L153.929 242.234Z" fill="#0CAF60"/>
<g opacity="0.1">
<path d="M134.884 165.911C134.884 165.911 139.499 177.098 153.202 240.332L152.426 240.487L134.884 165.911Z" fill="black"/>
</g>
<path d="M216.115 240.975V243.346C216.115 245.44 214.417 247.14 212.321 247.14H152.701C150.608 247.14 148.91 245.44 148.91 243.346V240.975C148.91 240.975 148.91 240.962 148.912 240.937C148.933 238.859 150.62 237.182 152.701 237.182H212.321C214.417 237.182 216.115 238.879 216.115 240.975Z" fill="#0CAF60"/>
<g opacity="0.08">
<path d="M212.321 237.182H152.701C150.62 237.182 148.932 238.859 148.912 240.937C148.939 240.578 149.358 237.759 155.879 237.759H160.41C161.415 237.759 162.418 237.881 163.387 238.147C165.705 238.784 170.744 239.48 181.676 239.357C193.098 239.229 195.119 243.111 196.198 247.14H212.321C214.417 247.14 216.115 245.44 216.115 243.346V240.975C216.115 238.88 214.416 237.182 212.321 237.182Z" fill="black"/>
</g>
<path d="M255.17 282.663C255.17 282.663 257.035 288.398 257.412 291.413C257.789 294.429 246.404 294.504 246.404 294.504L243.336 283.044L255.17 282.663Z" fill="#FBC0A4"/>
<path d="M274.845 302.281H259.654C256.911 301.916 255.015 301.765 254.078 301.286C253.773 301.129 253.411 301.247 253.25 301.531C253.227 301.576 253.207 301.623 253.192 301.675L253.046 302.049C253.02 302.139 252.96 302.219 252.883 302.281H246.13C246.021 302.167 245.956 302.01 245.958 301.838L245.945 301.531L245.806 292.547C245.806 292.493 245.817 292.442 245.838 292.397C245.9 292.263 246.044 292.177 246.201 292.199C248.534 292.532 256.142 291.704 256.989 290.52C257.068 290.408 257.146 290.318 257.221 290.243C257.993 289.473 258.502 290.52 258.502 290.52C261.486 299.508 273.514 297.431 274.881 299.448C276.091 301.232 275.429 301.98 274.845 302.281Z" fill="#323B42"/>
<g opacity="0.35">
<path d="M253.25 301.531C253.227 301.576 253.207 301.624 253.192 301.675L253.046 302.049C253.02 302.139 252.96 302.219 252.883 302.281H246.13C246.021 302.167 245.956 302.01 245.958 301.838L245.945 301.531H253.25Z" fill="black"/>
</g>
<path d="M225.103 283.045C225.103 283.045 225.922 288.398 226.299 291.414C226.676 294.43 215.291 294.505 215.291 294.505L214.095 283.045L225.103 283.045Z" fill="#FBC0A4"/>
<path d="M243.731 302.281H228.541C225.798 301.916 223.902 301.765 222.965 301.286C222.662 301.129 222.298 301.247 222.137 301.531C222.113 301.576 222.094 301.623 222.079 301.675L221.933 302.049C221.909 302.139 221.849 302.217 221.772 302.281H215.017C214.907 302.167 214.843 302.01 214.845 301.838L214.832 301.531L214.692 292.547C214.69 292.347 214.856 292.188 215.051 292.195C215.064 292.197 215.075 292.197 215.088 292.199C217.421 292.532 225.031 291.704 225.875 290.52C225.968 290.391 226.058 290.288 226.142 290.208C226.894 289.505 227.389 290.52 227.389 290.52C230.373 299.508 242.401 297.431 243.768 299.448C244.978 301.232 244.316 301.98 243.731 302.281Z" fill="#323B42"/>
<g opacity="0.35">
<path d="M222.137 301.531C222.113 301.576 222.094 301.624 222.079 301.675L221.933 302.049C221.909 302.139 221.849 302.217 221.771 302.281H215.017C214.907 302.167 214.843 302.01 214.845 301.838L214.832 301.531H222.137Z" fill="black"/>
</g>
<path d="M227.974 263.383C227.738 273.796 227.171 285.212 227.112 287.411C227.102 287.796 226.857 288.142 226.489 288.263C224.118 289.043 216.319 288.226 214.074 287.968C213.702 287.925 213.395 287.667 213.29 287.31C212.438 284.436 210.304 271.103 209.086 259.666C208.086 250.272 204.92 242.642 205.26 240.004C205.322 239.52 204.918 239.103 204.43 239.148C197.136 239.824 163.419 237.181 163.419 237.181C153.472 231.145 156.003 218.79 156.003 218.79L181.486 214.656L187.694 218.988C187.694 218.988 191.057 219.753 207.459 220.714C228.484 221.944 228.095 225.945 228.43 230.528C228.613 233.022 228.299 249.171 227.974 263.383Z" fill="#6B7277"/>
<path d="M255.977 287.656C252.873 288.365 245.037 290.076 242.309 289.954C241.8 289.932 241.357 289.608 241.17 289.133C240 286.155 234.499 268.116 230.479 256.314C229.667 253.93 228.914 251.639 228.269 249.551C227.437 246.853 226.786 244.493 226.418 242.711C224.183 231.867 171.204 216.11 171.204 216.11H198.383C198.383 216.11 221.723 218.679 230.89 219.796C240.054 220.914 243.296 224.491 244.302 229.969C245.209 234.911 255.042 278.425 256.947 286.078C257.123 286.783 256.687 287.495 255.977 287.656Z" fill="#6B7277"/>
<g opacity="0.15">
<path d="M228.269 249.551C228.449 240.176 228.555 232.218 228.43 230.528C228.095 225.945 228.484 221.944 207.459 220.714C191.057 219.753 187.694 218.988 187.694 218.988C187.694 218.988 207.081 220.201 210.037 220.353C212.995 220.504 227.596 220.278 228.901 226.646C229.752 230.805 230.242 246.167 230.479 256.314C229.666 253.93 228.914 251.639 228.269 249.551Z" fill="black"/>
</g>
<g opacity="0.15">
<path d="M210.794 234.153C210.738 234.286 208.917 238.527 205.26 240.004C205.323 239.52 204.919 239.104 204.431 239.149C204.431 239.149 208.367 237.487 210.794 234.153Z" fill="black"/>
</g>
<path d="M154.94 212.781C154.94 212.781 153.536 221.181 154.748 221.046C155.961 220.911 178.805 217.163 183.12 217.028C187.435 216.893 200.595 217.14 200.717 216.332C200.84 215.523 199.232 198.686 199.232 198.686L159.33 200.341C159.33 200.341 155.444 203.622 154.94 212.781Z" fill="#444D56"/>
<path d="M187.744 140.36C187.137 146.651 183.118 152.616 183.118 152.616C183.118 152.616 182.044 150.582 176.422 145.353C172.816 142.003 171.449 139.554 170.934 138.228C171.755 137.548 172.312 137.511 172.312 137.511C172.312 137.511 185.856 137.511 187.465 139.926C187.563 140.075 187.656 140.219 187.744 140.36Z" fill="#394147"/>
<path d="M177.213 156.279C177.213 156.279 185.137 154.793 189.582 152.213C194.027 149.633 194.203 147.447 194.203 147.447C194.203 147.447 186.791 145.232 186.873 143.187C186.966 140.885 187.078 138.218 187.078 138.218L173.506 130.771C173.506 130.771 173.522 131.091 173.544 131.621C173.544 131.622 173.544 131.622 173.545 131.623C173.619 133.456 173.73 135.388 173.433 137.817C173.222 139.55 170.569 143.768 164.634 144.936C162.145 145.426 177.213 156.279 177.213 156.279Z" fill="#FBC0A4"/>
<path d="M173.506 130.771C173.506 130.771 173.67 131.673 173.671 131.674C175.856 140.519 182.383 142.03 183.847 142.184C185.31 142.336 186.874 143.187 186.874 143.187C186.915 142.179 186.94 141.478 186.983 140.517C187.033 139.376 187.078 138.218 187.078 138.218L173.506 130.771Z" fill="#F69D7D"/>
<path d="M171.993 127.629C171.497 120.188 175.268 109.786 181.527 108.961C187.787 108.136 190.402 108.777 191.587 116.139C193.667 129.065 193.065 131.612 191.646 135.246C190.617 137.884 187.453 139.893 186.001 140.085C178.408 141.085 172.476 134.874 171.993 127.629Z" fill="#FBC0A4"/>
<path d="M170.485 131.837C171.8 132.846 172.739 131.877 172.739 131.877C173.294 130.195 171.993 127.629 171.993 127.629C171.845 126.173 170.447 124.205 168.584 125.148C168.406 125.237 168.224 125.354 168.039 125.499C165.909 127.173 168.741 130.5 170.485 131.837Z" fill="#FBC0A4"/>
<path d="M168.539 127.227C168.475 128.131 169.086 128.836 169.743 129.46C170.429 130.11 170.674 130.213 170.923 130.315C171.173 130.417 171.384 130.398 171.448 130.136C171.509 129.883 171.291 129.659 171.116 129.466C170.942 129.273 170.425 128.939 170.61 128.755C170.696 128.67 170.884 128.462 170.824 128.268C170.747 128.016 170.711 127.861 170.636 127.608C170.538 127.279 170.358 126.933 170.222 126.765C169.997 126.487 169.653 126.238 169.304 126.319C168.939 126.403 168.565 126.853 168.539 127.227Z" fill="#F69D7D"/>
<path d="M165.57 113.365C165.584 113.473 165.603 113.591 165.627 113.72C165.729 114.29 165.918 115.073 166.269 116.094C167.085 118.466 168.338 122.474 168.584 125.148C170.447 124.205 171.845 126.173 171.993 127.629C171.993 127.629 171.852 121.97 174.626 119.943C174.626 119.943 174.57 118.713 174.365 117.961C174.323 117.807 174.295 117.578 174.276 117.309C174.27 117.219 174.265 117.124 174.261 117.026C174.218 115.999 174.282 114.649 174.282 114.649L165.515 112.516C165.515 112.516 165.488 112.784 165.57 113.365Z" fill="#2D2525"/>
<path d="M164.974 112.613C164.969 112.903 165.139 113.17 165.404 113.287C165.605 113.376 165.868 113.51 166.163 113.703C167.919 114.851 170.56 117.116 174.261 117.026C174.261 117.026 174.953 116.974 176.031 116.792C176.659 116.686 177.42 116.536 178.25 116.325C180.863 115.663 187.178 116.897 190.812 115.398C190.826 115.392 190.84 115.387 190.854 115.381C191.207 115.235 191.546 115.083 191.871 114.923C194.871 113.451 196.622 111.332 195.949 107.061C195.949 107.061 195.993 109.253 194.983 110.243C194.999 110.187 195.672 107.89 194.858 106.07L194.857 106.071C194.688 105.69 194.452 105.331 194.131 105.017C192.259 103.184 192.253 102.208 192.253 102.208C192.253 102.208 191.483 103.166 191.663 104.572C191.556 104.106 191.077 102.867 188.945 101.543C186.238 99.8616 185.912 99.8645 184.806 100.132C184.806 100.132 185.331 102.264 184.124 102.382C182.917 102.501 183.111 101.496 181.129 101.921C179.606 102.247 176.389 102.122 173.652 102.776C172.826 102.974 172.045 103.242 171.367 103.615C168.787 105.033 165.511 108.854 165.033 111.939C164.998 112.168 164.977 112.393 164.974 112.613Z" fill="#3E3533"/>
<path d="M190.462 115.02C190.568 115.043 190.707 115.185 190.854 115.381C191.248 115.904 191.693 116.807 191.693 116.807C191.831 116.175 191.868 115.457 191.871 114.923C191.873 114.451 191.851 114.122 191.851 114.122C191.851 114.122 190.069 114.935 190.462 115.02Z" fill="#3E3533"/>
<g opacity="0.15">
<path d="M164.974 112.613C164.969 112.903 165.139 113.17 165.404 113.287C165.605 113.376 165.868 113.51 166.163 113.703C167.919 114.851 170.56 117.116 174.261 117.026C174.261 117.026 174.953 116.974 176.031 116.792C176.659 116.687 177.42 116.536 178.25 116.325C180.863 115.663 187.178 116.897 190.812 115.399C190.826 115.392 190.84 115.387 190.854 115.381C191.248 115.904 191.693 116.807 191.693 116.807C191.832 116.175 191.868 115.457 191.871 114.923C194.871 113.451 196.622 111.332 195.949 107.061C195.949 107.061 195.993 109.253 194.983 110.243C194.999 110.188 195.672 107.89 194.858 106.07L194.857 106.071C194.857 106.071 195.596 110.564 190.08 112.515C190.08 112.515 191.747 111.517 191.937 110.416C191.898 110.478 190.64 112.486 186.551 113.481C186.551 113.481 192.719 108.899 191.693 104.767C191.693 104.767 191.244 109.8 185.427 113.109C185.468 113.071 186.784 111.864 186.724 111.269C186.724 111.269 185.352 113.25 182.863 112.817C182.863 112.817 186.229 110.604 187.024 108.897C187.024 108.897 183.009 112.649 179.619 112.985C176.231 113.32 174.813 113.544 171.395 113.103C171.395 113.103 177.557 111.419 179.305 108.906C179.305 108.906 176.908 111.133 171.792 111.325C171.792 111.325 181.186 106.627 182.434 102.571C182.328 102.844 180.783 106.408 170.813 109.524C162.629 112.081 168.758 105.811 173.652 102.776C172.826 102.974 172.045 103.242 171.367 103.615C168.787 105.033 165.511 108.854 165.033 111.939C164.998 112.168 164.977 112.393 164.974 112.613Z" fill="black"/>
</g>
<g opacity="0.3">
<path d="M187.691 107.486C187.691 107.486 189.188 104.059 187.964 101.808C187.964 101.808 189.677 103.679 187.691 107.486Z" fill="black"/>
</g>
<g opacity="0.3">
<path d="M184.607 109.432C184.607 109.432 182.138 112.244 176.879 112.752C176.879 112.752 181.425 113.025 184.607 109.432Z" fill="black"/>
</g>
<g opacity="0.3">
<path d="M181.11 108.241C181.11 108.241 180.574 110.929 176.803 112.168C176.803 112.168 180.347 111.46 181.11 108.241Z" fill="black"/>
</g>
<g opacity="0.15">
<path d="M165.57 113.365C165.585 113.473 165.604 113.591 165.627 113.72C166.471 114.16 167.461 115.217 169.793 116.288C172.663 117.606 174.276 117.309 174.276 117.309C174.271 117.219 174.265 117.124 174.261 117.026C170.56 117.116 167.919 114.851 166.163 113.703C165.943 113.559 165.742 113.449 165.57 113.365Z" fill="black"/>
</g>
<path d="M181.505 135.2C181.627 135.298 181.975 135.12 182.499 134.893C183.021 134.664 183.743 134.396 184.566 134.284C185.389 134.171 186.154 134.235 186.718 134.316C187.282 134.394 187.664 134.472 187.756 134.345C187.8 134.285 187.762 134.18 187.64 134.049C187.519 133.918 187.31 133.765 187.018 133.621C186.726 133.477 186.348 133.349 185.906 133.274C185.464 133.2 184.957 133.184 184.43 133.254C183.904 133.328 183.419 133.479 183.012 133.67C182.605 133.861 182.273 134.086 182.029 134.303C181.785 134.521 181.623 134.725 181.54 134.884C181.457 135.043 181.447 135.154 181.505 135.2Z" fill="#3E3533"/>
<path d="M176.11 123.547C176.128 123.523 176.146 123.501 176.165 123.48C177.188 122.286 178.465 121.753 179.857 121.965C179.977 121.982 180.106 122.011 180.228 122.161C180.461 122.446 180.535 122.794 180.592 123.304C178.933 122.756 177.364 123.03 176.026 124.109C175.955 123.945 175.969 123.931 176.001 123.785C176.024 123.681 176.065 123.608 176.11 123.547Z" fill="#3E3533"/>
<path d="M190.944 121.825C190.921 121.806 190.897 121.79 190.874 121.774C189.581 120.878 188.211 120.687 186.918 121.244C186.806 121.292 186.689 121.352 186.609 121.528C186.457 121.864 186.473 122.219 186.547 122.726C188.012 121.775 189.6 121.643 191.167 122.347C191.195 122.171 191.178 122.161 191.11 122.028C191.062 121.932 191.003 121.872 190.944 121.825Z" fill="#3E3533"/>
<path d="M180.182 125.671C180.241 126.405 179.796 127.04 179.189 127.089C178.581 127.137 178.04 126.582 177.981 125.848C177.922 125.114 178.367 124.479 178.975 124.43C179.583 124.381 180.123 124.937 180.182 125.671Z" fill="#3E3533"/>
<path d="M189.99 124.559C190.049 125.293 189.604 125.928 188.996 125.977C188.388 126.025 187.848 125.47 187.789 124.736C187.73 124.002 188.175 123.367 188.783 123.318C189.391 123.269 189.931 123.825 189.99 124.559Z" fill="#3E3533"/>
<path d="M184.418 125.203C184.424 125.114 184.409 125.024 184.372 124.942C184.284 124.744 184.106 124.469 183.963 125.058C183.799 125.738 184.224 128.884 184.663 130.019C184.763 130.278 184.666 130.572 184.426 130.711L184.004 130.955C183.871 131.032 183.768 131.158 183.739 131.308C183.706 131.477 183.772 131.658 184.233 131.625C185.071 131.566 185.974 130.632 185.585 129.89C185.204 129.161 184.305 127.216 184.418 125.203Z" fill="#F69D7D"/>
<path d="M203.423 205.987H152.194L150.584 151.057C152.865 148.643 156.218 147.169 159.569 145.691C162.923 144.217 168.287 142.072 168.287 142.072C169.241 139.973 170.194 138.839 170.933 138.228C171.449 139.554 172.816 142.003 176.421 145.352C181.572 150.143 182.906 152.251 183.092 152.571C183.11 152.601 183.118 152.615 183.118 152.615C183.118 152.615 183.127 152.6 183.147 152.571C183.51 152.02 187.167 146.337 187.743 140.36C189.092 142.514 189.209 143.815 189.209 143.815C189.209 143.815 200.742 148.375 203.423 152.398C206.106 156.422 203.423 205.987 203.423 205.987Z" fill="#444D56"/>
<g opacity="0.15">
<path d="M189.179 146.863C189.144 147.878 189.068 148.893 188.974 149.908C188.87 150.921 188.747 151.934 188.548 152.938L188.386 153.69C188.319 153.94 188.263 154.189 188.183 154.437C188.11 154.685 188.026 154.93 187.932 155.176C187.877 155.297 187.833 155.42 187.769 155.541C187.74 155.6 187.71 155.663 187.673 155.724C187.635 155.787 187.607 155.837 187.541 155.919C187.46 156.02 187.316 156.037 187.217 155.956C187.175 155.923 187.147 155.88 187.136 155.834L187.133 155.819V155.817C187.043 155.441 186.917 155.066 186.781 154.694C186.768 154.658 186.755 154.622 186.74 154.586C186.615 154.251 186.475 153.919 186.332 153.59C186.042 152.926 185.724 152.269 185.393 151.627C185.367 151.658 185.342 151.688 185.315 151.718C185.229 151.802 185.153 151.891 185.06 151.968C184.885 152.128 184.688 152.264 184.481 152.381C184.271 152.491 184.047 152.577 183.816 152.627C183.585 152.675 183.354 152.696 183.118 152.663C182.878 152.714 182.63 152.726 182.382 152.707C182.135 152.683 181.888 152.63 181.648 152.56C181.41 152.487 181.177 152.396 180.952 152.292C180.818 152.228 180.692 152.165 180.563 152.092C180.431 152.392 180.298 152.694 180.155 152.99C179.972 153.373 179.773 153.752 179.559 154.124C179.451 154.306 179.341 154.489 179.226 154.668C179.105 154.852 178.976 155.034 178.835 155.21C178.766 155.297 178.689 155.381 178.617 155.466C178.536 155.55 178.46 155.635 178.371 155.714C178.286 155.794 178.19 155.871 178.082 155.944C178.024 155.979 177.975 156.014 177.904 156.046C177.872 156.063 177.838 156.078 177.796 156.093C177.773 156.1 177.76 156.108 177.73 156.113C177.697 156.12 177.693 156.126 177.621 156.133H177.619C177.515 156.141 177.416 156.102 177.346 156.033L177.343 156.031L175.835 154.549C175.341 154.048 174.866 153.525 174.386 153.009C173.919 152.479 173.464 151.941 173.006 151.403L172.352 150.569L172.026 150.152C171.92 150.01 171.821 149.863 171.717 149.719L171.104 148.855L170.529 147.963C170.331 147.672 170.164 147.356 169.984 147.053C169.896 146.899 169.802 146.749 169.721 146.591L169.483 146.117C169.404 145.958 169.319 145.802 169.246 145.64L169.037 145.152C168.888 144.829 168.784 144.487 168.663 144.156C168.561 143.815 168.46 143.474 168.395 143.126C168.331 142.777 168.272 142.425 168.286 142.072C168.576 143.446 169.226 144.688 169.899 145.895C170.07 146.195 170.242 146.496 170.432 146.787C170.62 147.08 170.791 147.379 170.997 147.66L171.592 148.513L172.223 149.342C172.33 149.478 172.432 149.618 172.542 149.754L172.877 150.154L173.54 150.957C174 151.478 174.458 152.001 174.93 152.514L176.373 154.02L177.692 155.327C177.76 155.284 177.831 155.234 177.9 155.175C177.97 155.119 178.039 155.049 178.109 154.984C178.174 154.914 178.243 154.845 178.308 154.771C178.548 154.5 178.762 154.193 178.966 153.88C178.986 153.852 179.004 153.824 179.022 153.796C179.242 153.452 179.451 153.096 179.646 152.731C179.843 152.368 180.025 151.994 180.209 151.619L180.22 151.597C180.28 151.476 180.427 151.425 180.546 151.485C180.566 151.494 180.585 151.508 180.6 151.523C180.762 151.666 180.957 151.807 181.149 151.934C181.343 152.062 181.546 152.178 181.756 152.279C181.966 152.375 182.186 152.456 182.412 152.514C182.634 152.563 182.861 152.584 183.092 152.571C183.11 152.601 183.118 152.615 183.118 152.615C183.118 152.615 183.127 152.6 183.147 152.571C183.356 152.583 183.575 152.549 183.781 152.487C183.993 152.424 184.194 152.327 184.38 152.21C184.564 152.087 184.736 151.949 184.889 151.789C184.966 151.713 185.032 151.622 185.107 151.539C185.173 151.452 185.235 151.36 185.3 151.271V151.269C185.349 151.202 185.444 151.185 185.512 151.233C185.529 151.247 185.544 151.263 185.555 151.283V151.284C185.957 151.986 186.333 152.698 186.686 153.428C186.768 153.597 186.848 153.767 186.924 153.937C187.015 154.135 187.103 154.334 187.185 154.538C187.268 154.744 187.351 154.953 187.425 155.167C187.45 155.111 187.473 155.054 187.498 154.999C187.589 154.772 187.673 154.539 187.745 154.301C187.824 154.066 187.88 153.821 187.95 153.583L188.125 152.85C188.342 151.869 188.491 150.869 188.632 149.867C188.76 148.865 188.861 147.857 188.952 146.848L189.209 143.815C189.222 144.829 189.224 145.847 189.179 146.863Z" fill="black"/>
</g>
<path d="M187.744 205.988H179.339C178.319 198.207 180.87 162.093 181.114 158.05C181.125 157.86 181.06 157.673 180.93 157.536C179.9 156.439 179.408 155.39 179.226 154.668C179.341 154.489 179.451 154.306 179.559 154.124C179.773 153.751 179.972 153.374 180.155 152.99C180.298 152.694 180.431 152.392 180.563 152.092C180.691 152.165 180.818 152.228 180.952 152.292C181.177 152.396 181.41 152.487 181.649 152.56C181.889 152.63 182.135 152.683 182.382 152.707C182.63 152.725 182.878 152.714 183.118 152.662C183.354 152.696 183.585 152.675 183.816 152.627C184.047 152.576 184.271 152.491 184.481 152.381C184.688 152.264 184.885 152.128 185.06 151.968C185.153 151.891 185.23 151.802 185.315 151.718C185.341 151.688 185.367 151.658 185.394 151.627C185.725 152.269 186.042 152.927 186.332 153.589C186.476 153.919 186.615 154.251 186.74 154.586C186.354 155.809 185.768 156.975 185.535 157.418L185.533 157.42C185.47 157.543 185.444 157.681 185.459 157.821C185.587 158.988 186.243 165.247 187.744 183.883C189.435 204.868 187.744 205.988 187.744 205.988Z" fill="#0CAF60"/>
<g opacity="0.15">
<path d="M185.535 157.418L185.533 157.42C185.477 157.469 184.379 158.383 181.114 158.05C181.125 157.86 181.06 157.673 180.93 157.536C180.93 157.536 182.796 157.999 185.535 157.418Z" fill="black"/>
</g>
<path d="M203.424 152.398C203.424 152.398 207.318 156.926 208.109 166.152C208.9 175.378 207.67 205.988 207.67 205.988H203.424L199.41 168.085L203.424 152.398Z" fill="#444D56"/>
<g opacity="0.15">
<path d="M198.572 204.476C198.557 202.517 198.561 202.072 198.566 200.114L198.578 197.177L198.609 194.24C198.657 190.324 198.715 186.407 198.847 182.491C198.878 181.512 198.911 180.533 198.952 179.554C198.988 178.575 199.035 177.596 199.085 176.617C199.107 176.128 199.134 175.638 199.167 175.149L199.263 173.68L199.388 172.21C199.436 171.721 199.495 171.235 199.548 170.747L199.726 169.287L199.927 167.83C200.068 166.859 200.221 165.89 200.397 164.926C200.738 162.995 201.131 161.071 201.655 159.182C200.953 163.036 200.468 166.916 200.08 170.804L199.945 172.263L199.832 173.72L199.748 175.182C199.719 175.669 199.695 176.157 199.677 176.646C199.634 177.622 199.595 178.599 199.567 179.577C199.533 180.554 199.508 181.531 199.485 182.51C199.397 186.421 199.321 190.334 199.27 194.248L199.131 204.477C199.129 204.631 199.003 204.755 198.849 204.753C198.696 204.752 198.574 204.628 198.572 204.476Z" fill="black"/>
</g>
<path d="M200.637 200.175C199.49 200.896 198.365 200.881 196.547 199.617C196.547 199.617 195.612 200.363 194.452 199.791C193.294 199.222 191.73 199.555 191.15 199.346C190.571 199.14 189.811 199.471 188.834 199.346C187.856 199.224 187.843 199.575 188.646 199.918C189.448 200.259 195.46 201.335 194.663 202.497C193.868 203.658 188.217 203.492 186.335 203.492C184.452 203.492 179.308 204.6 178.115 203.963C177.511 203.641 176.472 203.587 175.591 203.613C175.463 203.617 175.336 203.622 175.215 203.63C174.534 203.667 174.021 203.739 174.021 203.739L174.746 195.825C174.746 195.825 175.267 195.884 176.09 195.883C176.219 195.883 176.357 195.881 176.5 195.877C177.74 195.844 179.474 195.663 181.156 195.037C184.269 193.877 187.385 192.428 188.253 192.51C189.122 192.594 191.115 193.877 191.115 193.877C191.115 193.877 193.018 193.186 194.033 193.849C195.046 194.512 197.525 196.827 199.154 197.713C200.784 198.602 201.702 199.508 200.637 200.175Z" fill="#FBC0A4"/>
<path d="M185.814 194.186C185.814 194.186 190.417 194.071 191.114 193.878L185.814 194.186Z" fill="#F69D7D"/>
<path d="M187.231 196.37C187.691 196.335 188.151 196.31 188.611 196.28L189.992 196.205C190.452 196.178 190.912 196.16 191.372 196.137C191.832 196.117 192.304 196.116 192.769 196.216C193.235 196.314 193.671 196.524 194.088 196.753C194.505 196.986 194.912 197.23 195.32 197.481C195.723 197.741 196.125 198.01 196.48 198.36C196.569 198.447 196.653 198.543 196.73 198.647C196.806 198.752 196.878 198.866 196.919 199.004C196.94 199.071 196.952 199.147 196.944 199.224C196.937 199.3 196.91 199.376 196.866 199.431C196.779 199.542 196.661 199.595 196.546 199.616C196.644 199.544 196.739 199.468 196.794 199.37C196.849 199.272 196.851 199.158 196.813 199.046C196.777 198.934 196.71 198.832 196.639 198.736C196.566 198.64 196.485 198.55 196.4 198.465C196.23 198.295 196.045 198.141 195.854 197.998C195.664 197.853 195.467 197.719 195.266 197.594C195.065 197.467 194.859 197.352 194.652 197.238L194.34 197.073C194.234 197.021 194.129 196.967 194.023 196.919C193.6 196.719 193.171 196.546 192.731 196.446C192.29 196.343 191.835 196.332 191.376 196.342C190.915 196.348 190.455 196.359 189.995 196.361L188.613 196.374C188.153 196.372 187.692 196.376 187.231 196.37Z" fill="#F69D7D"/>
<path d="M178.535 203.588C179.372 203.372 180.204 203.141 181.029 202.882C181.439 202.746 181.85 202.612 182.255 202.458C182.357 202.423 182.457 202.38 182.558 202.34C182.658 202.299 182.76 202.263 182.858 202.218L183.157 202.087L183.448 201.941L183.521 201.905L183.591 201.863L183.732 201.78C183.826 201.726 183.92 201.666 184.014 201.606C184.108 201.546 184.203 201.489 184.299 201.432C184.394 201.375 184.49 201.319 184.586 201.265C184.971 201.046 185.362 200.842 185.755 200.646L186.935 200.062C187.327 199.866 187.717 199.662 188.09 199.42C187.358 199.934 186.561 200.31 185.787 200.728C185.399 200.935 185.015 201.149 184.637 201.378C184.542 201.435 184.448 201.493 184.355 201.553C184.262 201.611 184.169 201.671 184.077 201.733C183.985 201.795 183.894 201.857 183.796 201.915L183.581 202.047L183.507 202.086C182.724 202.511 181.895 202.788 181.062 203.027C180.227 203.259 179.385 203.453 178.535 203.588Z" fill="#F69D7D"/>
<path d="M186.73 202.94C186.73 202.94 188.123 201.346 188.025 199.837C188.025 199.837 188.259 201.388 186.73 202.94Z" fill="#F69D7D"/>
<path d="M192.562 196.499C192.562 196.499 192.813 196.984 192.571 197.564C192.571 197.564 192.93 197.056 192.562 196.499Z" fill="#F69D7D"/>
<path d="M193.498 193.777C193.498 193.777 193.749 194.263 193.507 194.842C193.507 194.842 193.866 194.334 193.498 193.777Z" fill="#F69D7D"/>
<g opacity="0.6">
<path d="M195.433 197.789C195.311 197.698 195.152 197.704 195.038 197.807C194.863 197.965 194.664 198.236 194.809 198.581C195.045 199.141 195.789 199.801 196.22 199.616C196.65 199.431 196.853 199.112 196.591 198.774C196.397 198.523 195.753 198.029 195.433 197.789Z" fill="white"/>
</g>
<g opacity="0.6">
<path d="M199.635 198.24C199.513 198.149 199.354 198.154 199.24 198.258C199.065 198.416 198.866 198.687 199.011 199.031C199.248 199.592 199.991 200.252 200.422 200.067C200.853 199.882 201.055 199.563 200.793 199.225C200.599 198.974 199.955 198.479 199.635 198.24Z" fill="white"/>
</g>
<path d="M176.242 202.151C176.242 202.151 176.797 203.38 177.726 203.471C177.726 203.471 176.621 203.566 176.242 202.151Z" fill="#F69D7D"/>
<path d="M176.116 195.035C176.12 197.129 175.405 202.296 175.159 204.017C175.146 204.103 175.135 204.179 175.126 204.246C175.114 204.326 175.104 204.392 175.096 204.445C175.084 204.529 175.021 204.595 174.937 204.61C169.311 205.621 160.019 205.989 160.019 205.989H150.585C150.585 205.989 147.954 204.678 145.054 201.218C142.155 197.758 144.587 174.003 145.054 164.93C145.522 155.859 150.585 151.057 150.585 151.057C155.282 150.716 158.123 154.548 159.736 159.182C161.375 163.878 161.749 169.4 161.515 172.227C161.086 177.359 159.861 189.683 159.656 191.745C159.639 191.911 159.757 192.06 159.921 192.086C170.068 193.704 174.727 194.514 175.841 194.709C175.999 194.737 176.116 194.875 176.116 195.035Z" fill="#444D56"/>
<g opacity="0.15">
<path d="M176.551 194.628C176.551 194.972 176.532 195.397 176.5 195.877C176.357 195.881 176.219 195.883 176.091 195.883C176.107 195.564 176.117 195.279 176.117 195.035C176.117 194.875 175.999 194.737 175.841 194.709C174.727 194.514 170.068 193.704 159.921 192.086C159.921 192.086 150.827 191.674 148.31 197.836C148.339 197.657 149.421 191.933 159.656 191.745C159.861 189.683 161.086 177.359 161.515 172.227C161.749 169.4 161.375 163.878 159.736 159.182H159.738C161.576 164.174 162.256 168.482 161.949 171.819C161.478 176.947 160.295 189.275 160.09 191.337C160.073 191.503 160.191 191.652 160.355 191.678C170.502 193.296 175.161 194.106 176.275 194.302C176.433 194.33 176.551 194.467 176.551 194.628Z" fill="black"/>
</g>
<g opacity="0.15">
<path d="M159.331 190.539C159.331 190.539 150.323 186.973 145.649 194.136C145.649 194.136 149.339 187.772 159.331 190.539Z" fill="black"/>
</g>
<path d="M170.945 205.989H190.958L189.903 203.254L170.904 204.062C170.389 204.084 169.981 204.509 169.981 205.025C169.981 205.557 170.413 205.989 170.945 205.989Z" fill="#E5E5E5" stroke="#444444" stroke-width="1.25595" stroke-miterlimit="12.6087"/>
<path d="M241.894 173.58C241.892 173.7 241.877 173.821 241.842 173.944L233.086 204.982C232.919 205.577 232.376 205.989 231.756 205.989H190.957C190.892 205.989 190.828 205.985 190.765 205.974C189.95 205.864 189.396 205.05 189.627 204.232L198.381 173.194C198.549 172.599 199.093 172.187 199.711 172.187H240.51C241.301 172.187 241.902 172.838 241.894 173.58Z" fill="#E5E5E5"/>
<path d="M241.894 173.58C241.892 173.7 241.877 173.821 241.842 173.944L233.086 204.982C232.919 205.577 232.376 205.989 231.756 205.989H190.957C190.892 205.989 190.828 205.985 190.765 205.974C189.95 205.864 189.396 205.05 189.627 204.232L198.381 173.194C198.549 172.599 199.093 172.187 199.711 172.187H240.51C241.301 172.187 241.902 172.838 241.894 173.58Z" stroke="#444444" stroke-width="1.25595" stroke-miterlimit="12.6087"/>
<g opacity="0.08">
<path d="M241.894 173.58C241.892 173.7 241.877 173.821 241.842 173.944L233.086 204.982C232.919 205.577 232.376 205.989 231.756 205.989H190.957C190.892 205.989 190.828 205.985 190.765 205.974C190.767 205.852 190.784 205.731 190.819 205.608L199.573 174.572C199.74 173.975 200.285 173.565 200.903 173.565H241.702C241.767 173.565 241.833 173.569 241.894 173.58Z" fill="black"/>
</g>
<g opacity="0.8">
<path d="M212.624 187.236C211.425 190.112 212.624 193.429 215.302 194.643C217.98 195.858 221.124 194.511 222.323 191.634C223.522 188.758 222.324 185.441 219.645 184.227C216.967 183.012 213.824 184.36 212.624 187.236Z" fill="white"/>
</g>
</g>
<mask id="mask7_10450_1642" style="mask-type:luminance" maskUnits="userSpaceOnUse" x="116" y="205" width="250" height="291">
<path d="M365.059 205.78H116.633V495.325H365.059V205.78Z" fill="white"/>
</mask>
<g mask="url(#mask7_10450_1642)">
<path d="M138.099 214.006L137.413 218.333L124.352 301.86H121.586L128.258 218.597L128.631 214.006H138.099Z" fill="#8C7357"/>
<path d="M294.678 301.86H291.91L278.787 218.246L278.113 214.006H287.579L287.948 218.567L294.678 301.86Z" fill="#8C7357"/>
<g opacity="0.15">
<path d="M128.633 214.006H138.1L137.415 218.333L128.26 218.597L128.633 214.006Z" fill="black"/>
</g>
<g opacity="0.15">
<path d="M287.949 218.567L278.786 218.245L278.114 214.006L287.58 214.006L287.949 218.567Z" fill="black"/>
</g>
<path d="M297.408 215.696H118.804C118.589 215.696 118.416 215.367 118.416 214.962V206.514C118.416 206.109 118.589 205.78 118.804 205.78H297.408C297.622 205.78 297.796 206.109 297.796 206.514V214.962C297.796 215.367 297.622 215.696 297.408 215.696Z" fill="#8C7357"/>
</g>
<path fill-rule="evenodd" clip-rule="evenodd" d="M353.712 251.043C353.712 251.043 346.009 243.235 353.577 228.97C361.142 214.706 374.182 209.3 374.182 209.3C374.182 209.3 374.241 224.406 367.02 236.66C358.102 251.794 353.712 251.043 353.712 251.043Z" fill="#FAB400"/>
<path fill-rule="evenodd" clip-rule="evenodd" d="M343.135 227.897C343.135 227.897 355.911 215.595 338.186 193.133C324.015 175.176 312.427 175.075 312.427 175.075C312.427 175.075 316.162 193.356 322.81 207.75C333.514 230.924 343.135 227.897 343.135 227.897Z" fill="#FAB400"/>
<path fill-rule="evenodd" clip-rule="evenodd" d="M336.372 255.238C336.372 255.238 329.526 258.456 323.586 244.846C317.65 231.237 318.968 226.452 314.02 216.061C314.02 216.061 329.828 218.139 335.381 229.67C345.196 250.043 336.372 255.238 336.372 255.238Z" fill="#FAB400"/>
<path fill-rule="evenodd" clip-rule="evenodd" d="M366.184 219.367L366.337 219.457C357.871 234.102 354.89 244.158 353.549 253.171C352.772 258.382 352.682 261.499 351.623 265.155C349.125 273.77 346.342 280.017 346.339 280.017C346.243 280.108 346.172 280.24 346.048 280.288L345.65 280.274C345.56 280.178 345.424 280.108 345.379 279.983C345.292 279.752 345.32 279.741 345.424 279.515C346.144 277.928 348.651 272.105 350.887 264.717C352.357 259.856 352.18 254.142 354.511 245.473C357.069 235.968 361.56 227.127 366.184 219.367Z" fill="#364049"/>
<path fill-rule="evenodd" clip-rule="evenodd" d="M324.572 228.908C328.781 234.743 332.563 242.467 336.326 254.159C337.139 256.686 337.374 257.513 338.977 262.837C341.148 270.033 340.318 279.43 340.284 279.823C340.264 280.048 340.264 280.063 340.089 280.206L339.705 280.322C339.587 280.26 339.437 280.235 339.352 280.133C339.183 279.927 339.22 279.904 339.245 279.642C339.406 278.053 340.086 269.604 338.223 263.06C336.064 255.475 332.826 243.153 326.898 232.948C325.492 230.529 324.397 229.038 324.399 229.032C324.422 228.965 324.549 228.976 324.572 228.908Z" fill="#364049"/>
<path fill-rule="evenodd" clip-rule="evenodd" d="M322.883 186.248C331.369 196.275 339.18 209.255 343.222 227.494C344.758 234.424 345.693 241.707 346.297 251.223C347.206 265.51 344.733 276.39 343.691 280.175C343.482 280.938 343.341 281.367 343.341 281.367C343.251 281.477 343.189 281.624 343.062 281.689C343.059 281.689 342.635 281.72 342.632 281.717C342.525 281.626 342.376 281.564 342.313 281.437C342.181 281.175 342.234 281.158 342.325 280.876C342.92 279.018 346.364 267.275 345.45 251.068C344.45 233.394 341.918 209.467 322.852 186.502C322.739 186.369 322.739 186.369 322.739 186.369C322.751 186.265 322.869 186.352 322.883 186.248Z" fill="#364049"/>
<path fill-rule="evenodd" clip-rule="evenodd" d="M344.061 233.747C344.061 233.747 351.262 231.759 354.083 216.309C356.9 200.859 357.526 189.898 357.004 183.843C356.482 177.788 357.004 165.677 357.004 165.677C357.004 165.677 344.468 173.446 339.988 197.308C334.246 227.897 344.061 233.747 344.061 233.747Z" fill="#FAB400"/>
<path fill-rule="evenodd" clip-rule="evenodd" d="M349.826 186.2C349.826 186.251 349.916 186.273 349.916 186.324C349.916 186.465 347.624 199.854 345.874 215.522C345.6 217.964 343.85 233.21 343.525 248.804C343.305 259.269 344.061 269.804 344.756 276.83C345.038 279.687 345.303 281.883 345.442 282.953C345.493 283.331 345.388 283.323 345.058 283.512C344.767 283.681 344.564 283.168 344.544 283.12C344.536 283.103 342.32 265.533 342.876 248.172C343.373 232.623 345.159 213.289 349.603 186.861C349.693 186.335 349.685 186.335 349.699 186.29C349.727 186.211 349.797 186.279 349.826 186.2Z" fill="#364049"/>
<path d="M333.753 302.887H355.29L360.288 270.266L330.046 269.788L333.753 302.887Z" fill="#434D56"/>
<path d="M327.574 263.233V269.426C327.574 270.774 328.378 271.865 329.369 271.865H360.557C361.548 271.865 362.351 270.774 362.351 269.426V263.233H327.574Z" fill="#434D56"/>
<path fill-rule="evenodd" clip-rule="evenodd" d="M330.39 271.866H359.916C359.916 271.866 342.997 273.43 330.39 271.866Z" fill="#364049"/>
<mask id="mask8_10450_1642" style="mask-type:luminance" maskUnits="userSpaceOnUse" x="97" y="180" width="303" height="187">
<path d="M399.513 180H97.5127V366.62H399.513V180Z" fill="white"/>
</mask>
<g mask="url(#mask8_10450_1642)">
<path d="M112.825 303.83L387.166 304.033L387.17 301.962L112.829 301.758L112.825 303.83Z" fill="#1D2227"/>
</g>
</g>
<defs>
<clipPath id="clip0_10450_1642">
<rect width="508" height="367" fill="white"/>
</clipPath>
</defs>
</svg>
